<?xml version="1.0" encoding="UTF-8" standalone="no"?>
<!DOCTYPE svg PUBLIC "-//W3C//DTD SVG 1.1//EN"
 "http://www.w3.org/Graphics/SVG/1.1/DTD/svg11.dtd">
<!-- Generated by graphviz version 2.43.0 (0)
 -->
<!-- Title: %3 Pages: 1 -->
<svg width="505pt" height="165pt"
 viewBox="0.00 0.00 505.00 164.74" xmlns="http://www.w3.org/2000/svg" xmlns:xlink="http://www.w3.org/1999/xlink">
<g id="graph0" class="graph" transform="scale(1 1) rotate(0) translate(36 128.74)">
<title>%3</title>
<polygon fill="dimgray" stroke="transparent" points="-36,36 -36,-128.74 469,-128.74 469,36 -36,36"/>
<text text-anchor="middle" x="216.5" y="-77.54" font-family="Helvetica,sans-Serif" font-size="14.00">Sweep&#39;s Plan &amp; Progress</text>
<!-- start -->
<g id="node1" class="node">
<title>start</title>
</g>
<!-- acbc8a41&#45;de62&#45;4d31&#45;8633&#45;ef252333cc8e -->
<g id="node3" class="node">
<title>acbc8a41&#45;de62&#45;4d31&#45;8633&#45;ef252333cc8e</title>
<ellipse fill="yellow" stroke="black" cx="213.5" cy="-26.87" rx="160.53" ry="26.74"/>
<text text-anchor="middle" x="213.5" y="-30.67" font-family="Helvetica,sans-Serif" font-size="14.00">⋯ Modify</text>
<text text-anchor="middle" x="213.5" y="-15.67" font-family="Helvetica,sans-Serif" font-size="14.00">gamification/social_sharing.py</text>
</g>
<!-- start&#45;&gt;acbc8a41&#45;de62&#45;4d31&#45;8633&#45;ef252333cc8e -->
<g id="edge1" class="edge">
<title>start&#45;&gt;acbc8a41&#45;de62&#45;4d31&#45;8633&#45;ef252333cc8e</title>
<path fill="none" stroke="black" d="M1.11,-26.87C4.4,-26.87 20.63,-26.87 42.77,-26.87"/>
<polygon fill="black" stroke="black" points="42.97,-30.37 52.97,-26.87 42.97,-23.37 42.97,-30.37"/>
<text text-anchor="middle" x="26.99" y="-33.67" font-family="Helvetica,sans-Serif" font-size="14.00">Start</text>
</g>
<!-- end -->
<g id="node2" class="node">
<title>end</title>
</g>
<!-- acbc8a41&#45;de62&#45;4d31&#45;8633&#45;ef252333cc8e&#45;&gt;end -->
<g id="edge2" class="edge">
<title>acbc8a41&#45;de62&#45;4d31&#45;8633&#45;ef252333cc8e&#45;&gt;end</title>
<path fill="none" stroke="black" d="M374.1,-26.87C394.11,-26.87 411.19,-26.87 421.61,-26.87"/>
<polygon fill="black" stroke="black" points="421.85,-30.37 431.85,-26.87 421.85,-23.37 421.85,-30.37"/>
<text text-anchor="middle" x="403.01" y="-33.67" font-family="Helvetica,sans-Serif" font-size="14.00">Finish</text>
</g>
</g>
</svg>
